<?xml version="1.0" encoding="utf-8"?>
<!-- Generator: Adobe Illustrator 22.0.2, SVG Export Plug-In . SVG Version: 6.00 Build 0)  -->
<svg version="1.1" id="Layer_1" xmlns="http://www.w3.org/2000/svg" xmlns:xlink="http://www.w3.org/1999/xlink" x="0px" y="0px"
	 viewBox="0 0 1152.9 281.1" style="enable-background:new 0 0 1152.9 281.1;" xml:space="preserve">
<style type="text/css">
	.st0{fill:#FFFFFF;}
</style>
<path class="st0" d="M157.3,209.1h16.3c7.7,0,16,1.7,21.4,8.2c4.4,4.9,6.5,11.3,6.5,19c0,16.4-9.3,27.3-27.7,27.3h-16.6v-54.5H157.3
	z M163.3,258.2h10.8c14,0,21.3-8.6,21.3-21.7c0-6.3-1.7-11.9-5.3-15.9c-3.5-3.7-8.5-6.1-16-6.1h-10.8V258.2z"/>
<path class="st0" d="M212.2,245.3c0.3,9.9,8.8,14.7,15.5,14.6c6.1,0,11-3,13.6-8.2h5.7c-1.8,4.3-4.6,7.5-8,9.6
	c-3.3,2.1-7.2,3.2-11.3,3.2c-13.8,0-20.9-11-20.9-20.8c0-11.6,9-21,20.8-21c5.6,0,10.7,2,14.5,5.6c4.6,4.4,6.8,10.5,6.2,16.9
	L212.2,245.3L212.2,245.3z M242.9,240.9c-0.4-6.9-7.1-13.7-15.2-13.5c-8.5,0-14.9,6.3-15.4,13.5H242.9z"/>
<rect x="256" y="209.1" class="st0" width="5.4" height="54.5"/>
<path class="st0" d="M272,209.1h5.4v7.6H272V209.1z M272,223.9h5.4v39.6H272V223.9z"/>
<polygon class="st0" points="304.6,263.5 298.9,263.5 283.3,223.9 289,223.9 301.8,256.8 314.4,223.9 320.2,223.9 "/>
<path class="st0" d="M326.8,245.3c0.3,9.9,8.8,14.7,15.5,14.6c6.1,0,11-3,13.6-8.2h5.7c-1.8,4.3-4.6,7.5-8,9.6
	c-3.3,2.1-7.2,3.2-11.3,3.2c-13.8,0-20.9-11-20.9-20.8c0-11.6,9-21,20.8-21c5.6,0,10.7,2,14.5,5.6c4.6,4.4,6.8,10.5,6.2,16.9
	L326.8,245.3L326.8,245.3z M357.5,240.9c-0.4-6.9-7.1-13.7-15.2-13.5c-8.5,0-14.9,6.3-15.4,13.5H357.5z"/>
<path class="st0" d="M370.6,223.9h5.2v6.5c2.9-5.9,8-7.4,12.7-7.6v5.4H388c-7.7,0-11.9,4.8-11.9,13.8v21.6h-5.4L370.6,223.9
	L370.6,223.9z"/>
<path class="st0" d="M394.3,209.1h5.4v7.6h-5.4V209.1z M394.3,223.9h5.4v39.6h-5.4V223.9z"/>
<path class="st0" d="M410.3,223.9h5.2c0,2.2,0,4.4-0.1,7.1c2.3-5.2,7.7-8.3,14.7-8.2c12.3,0.1,16.6,8.5,16.6,18.2v22.5h-5.4v-21.4
	c0-8.5-3.8-14.4-12.7-14.2c-8.2,0.1-12.9,5-12.9,13.2v22.4h-5.4L410.3,223.9L410.3,223.9z"/>
<path class="st0" d="M496.9,259c0,7.5-2.4,12.3-5.9,15.6c-3.9,3.8-9.6,6.1-15,6.1c-9.9,0-17.1-5.7-19.6-12.8h6.3
	c1,1.7,2.4,3.6,4.7,5.2c2.9,2.1,6.3,2.9,8.8,2.9c7.6,0,15.3-5.9,15.3-15.7v-5.1c-2.8,5.6-8.3,9.5-16,9.5c-12.4,0-20.7-9.4-20.7-20.8
	c0-11.9,8.6-21,20.7-21c7.8,0,13.8,4.4,16,9.3V224h5.4V259z M460.2,243.7c0,8,5.7,15.8,15.9,15.8c4.5,0,8.3-1.7,11.1-4.6
	c2.7-2.9,4.3-6.8,4.4-11.2c0-3.3-1.1-7.2-3.6-10.4c-2.4-3.2-6.4-5.5-12.1-5.5C467.3,227.9,460.2,234.4,460.2,243.7L460.2,243.7z"/>
<polygon class="st0" points="528.7,263.5 528.7,209.1 534.8,209.1 534.8,233.3 561,233.3 561,209.1 567.1,209.1 567.1,263.5 
	561,263.5 561,238.6 534.8,238.6 534.8,263.5 "/>
<path class="st0" d="M617.6,263.5h-5.4v-8.2c-3.1,6-9.1,9.3-16.2,9.3c-12.9,0-20.5-10-20.5-20.9c0-11.6,8.5-20.9,20.5-20.9
	c8.5,0,14.3,4.9,16.2,9.4v-8.3h5.4V263.5z M580.8,243.8c0.1,7.1,5,15.8,15.9,15.8c7,0,12.1-4,14.3-9.6c0.9-1.9,1.3-4.1,1.3-6.3
	c0.1-2.2-0.4-4.4-1.2-6.3c-2.2-5.4-7.5-9.5-14.5-9.5C587.4,227.8,580.8,234.9,580.8,243.8L580.8,243.8z"/>
<path class="st0" d="M628.2,223.9h5.2v8.2c3.2-5.7,9-9.3,16.6-9.3c13.3,0,20.3,10.8,20.3,21c0,11-8,20.8-20.3,20.8
	c-8.8,0-14.4-5.1-16.3-9.2v8.1v15h-5.4L628.2,223.9L628.2,223.9z M664.8,243.7c0-7.4-5.2-15.8-15.9-15.8c-4.4,0-8.3,1.8-11.2,4.6
	c-2.7,2.9-4.4,6.8-4.4,11.3c0,4.4,1.7,8.4,4.6,11.3c2.8,2.8,6.8,4.5,11.2,4.5C657.9,259.5,664.8,252.8,664.8,243.7L664.8,243.7z"/>
<path class="st0" d="M678.6,223.9h5.2v8.2c3.2-5.7,9-9.3,16.6-9.3c13.3,0,20.3,10.8,20.3,21c0,11-8,20.8-20.3,20.8
	c-8.8,0-14.4-5.1-16.3-9.2v8.1v15h-5.4L678.6,223.9L678.6,223.9z M715.1,243.7c0-7.4-5.2-15.8-15.9-15.8c-4.4,0-8.3,1.8-11.2,4.6
	c-2.7,2.9-4.4,6.8-4.4,11.3c0,4.4,1.7,8.4,4.6,11.3c2.8,2.8,6.8,4.5,11.2,4.5C708.3,259.5,715.1,252.8,715.1,243.7L715.1,243.7z"/>
<path class="st0" d="M728.9,209.1h5.4v7.6h-5.4V209.1z M728.9,223.9h5.4v39.6h-5.4V223.9z"/>
<path class="st0" d="M744.9,223.9h5.2c0,2.2,0,4.4-0.1,7.1c2.3-5.2,7.7-8.3,14.7-8.2c12.3,0.1,16.6,8.5,16.6,18.2v22.5h-5.4v-21.4
	c0-8.5-3.8-14.4-12.7-14.2c-8.2,0.1-12.9,5-12.9,13.2v22.4h-5.4L744.9,223.9L744.9,223.9z"/>
<path class="st0" d="M794.3,245.3c0.3,9.9,8.8,14.7,15.5,14.6c6.1,0,11-3,13.6-8.2h5.7c-1.8,4.3-4.6,7.5-8,9.6
	c-3.3,2.1-7.2,3.2-11.3,3.2c-13.8,0-20.9-11-20.9-20.8c0-11.6,9-21,20.8-21c5.6,0,10.7,2,14.5,5.6c4.6,4.4,6.8,10.5,6.2,16.9
	L794.3,245.3L794.3,245.3z M825,240.9c-0.4-6.9-7.1-13.7-15.2-13.5c-8.5,0-14.9,6.3-15.4,13.5H825z"/>
<path class="st0" d="M855.9,233.9c0-4.2-2.8-6.5-6.8-6.5c-4.3,0-7,2.9-6.8,6.4c0.1,3.8,3,5.3,7.8,6.7c5.7,1.5,12,3.2,12.3,11.6
	c0.3,7.3-5.6,12.6-13.1,12.6c-6.4,0-13.5-4-13.5-12.4h5.4c0.2,5.4,4.3,7.9,8.2,7.9c4.6,0,7.7-3.4,7.7-7.4c-0.1-4.5-3.1-6.3-9.9-8.3
	c-5.7-1.7-10.1-4-10.2-10.2c0-7.1,5.7-11.3,12.4-11.3c5.5,0,11.7,3,12.1,11h-5.6V233.9z"/>
<path class="st0" d="M889,233.9c0-4.2-2.8-6.5-6.8-6.5c-4.3,0-7,2.9-6.8,6.4c0.1,3.8,3,5.3,7.8,6.7c5.7,1.5,12,3.2,12.3,11.6
	c0.3,7.3-5.6,12.6-13.1,12.6c-6.4,0-13.5-4-13.5-12.4h5.4c0.2,5.4,4.3,7.9,8.2,7.9c4.6,0,7.7-3.4,7.7-7.4c-0.1-4.5-3.1-6.3-9.9-8.3
	c-5.7-1.7-10.1-4-10.2-10.2c0-7.1,5.7-11.3,12.4-11.3c5.5,0,11.7,3,12.1,11H889V233.9z"/>
<path class="st0" d="M235.2,2.5h-91.4L74.2,46c-12.5,7.9-20,13.6-25.4,21.8V2.5H-0.1v171.9h48.9v-63.5c5.4,8.5,12.8,14.1,22.8,20
	l72.4,43.5h92.5L94.7,88.7L235.2,2.5z"/>
<polygon class="st0" points="431.3,64 297.3,64 297.3,2.3 251.1,2.3 251.1,174.4 297.5,174.4 297.5,111.3 430.6,111.3 430.6,174.4 
	477.4,174.4 477.4,2.3 431.3,2.3 "/>
<rect x="503.2" y="2.3" class="st0" width="46.8" height="172.1"/>
<path class="st0" d="M756.9,122L652.6,16.5C641.8,5.4,630.6,0,618.3,0c-23.1,0-42.5,19.2-42.5,42v132.4h44.8V52.9l93.3,95.5
	c24.8,22.8,32.8,27.7,45.4,27.7c24,0,42.8-21.3,42.8-48.5V2.3H757V122H756.9z"/>
<path class="st0" d="M1003.8,2.3h-176V51H902h102.3c5.6,0,7.2,2.5,7.2,11.6v55.6c0,5.4,0,8.5-7.4,8.5H873.4V76.8h-45.5v97.7h176.2
	c28.9,0,50.7-20.7,53.1-50.6V55.4C1057.1,23.6,1035.7,2.3,1003.8,2.3"/>
<path class="st0" d="M1127,32v-0.2c3.5-1.2,6.3-4.1,6.3-8.5c0-2.6-1-4.9-2.6-6.4c-2-1.8-5.1-2.7-9.7-2.7c-2.9,0-6.1,0.3-8.3,0.7v33
	h4.3V33.4h4.1c3.9,0.1,5.8,1.9,6.8,6.5c0.9,4.2,1.6,7,2.2,8h4.5c-0.7-1.3-1.5-4.5-2.6-9.2C1131,35.3,1129.5,32.9,1127,32
	 M1121.3,30.1h-4.4V17.9c0.8-0.2,2.2-0.4,4.3-0.4c4.6,0,7.7,1.9,7.7,6.2C1128.9,27.6,1126,30.1,1121.3,30.1"/>
<path class="st0" d="M1121.2,0c-17.3,0-31.4,14.1-31.4,31.4s14.1,31.4,31.4,31.4s31.4-14.1,31.4-31.4S1138.5,0,1121.2,0
	 M1121.2,58.7c-15,0-27.3-12.2-27.3-27.3c0-15,12.2-27.3,27.3-27.3c15,0,27.3,12.2,27.3,27.3C1148.5,46.4,1136.2,58.7,1121.2,58.7"
	/>
</svg>
